# xmcd CD database file
#
# Track frame offsets:
#	182
#	18275
#	34362
#	49802
#	68710
#	84992
#	100280
#	114740
#	130087
#	146482
#	164207
#	179887
#	193057
#	208747
#	222782
#	239107
#	255057
#	271845
#	287147
#	304112
#
# Disc length: 4262 seconds
#
# Revision: 2
# Processed by: cddbd v1.4b41PL1 Copyright (c) Steve Scherf et al.
# Submitted via: Feurio! 1.60 - http://www.feurio.com
#
DISCID=1c10a414,3310a414
DTITLE=Smash - Volume 11
DYEAR=1900
DGENRE=
TTITLE0=Rednex - The Spirit of the Night
TTITLE1=Berger - Zeig mir dein Gesicht
TTITLE2=Britney Spears - Lucky
TTITLE3=Melanie C. - I turn to you
TTITLE4=ATC - Around The World
TTITLE5=Tic Tac Toe - Isch liebe disch
TTITLE6='n Sync - It's gonna be me
TTITLE7=Christina Aguilera - Come on over baby
TTITLE8=Band Ohne Namen - Nobody
TTITLE9=Bastiaan Ragas - Yoe complete me
TTITLE10=Reamonn -  Josephine
TTITLE11=Vengaboys - Cheekah bow bow
TTITLE12=Shanks and Bigfoot - Sing a long
TTITLE13=Sweetbox - Trying to be me
TTITLE14=Rollergirl - Superstar
TTITLE15=Hampton the hamster - The hamsterdance song
TTITLE16=Music instructor feat dean - Super Fly
TTITLE17=Mauro Picotto - Komodo
TTITLE18=Darude - Sandstorm
TTITLE19=Gigi D'Agostino - La Passion
EXTD=
EXTT0=
EXTT1=
EXTT2=
EXTT3=
EXTT4=
EXTT5=
EXTT6=
EXTT7=
EXTT8=
EXTT9=
EXTT10=
EXTT11=
EXTT12=
EXTT13=
EXTT14=
EXTT15=
EXTT16=
EXTT17=
EXTT18=
EXTT19=
PLAYORDER=
